<?xml version="1.0" encoding="UTF-8" standalone="no"?>
<!-- Created with Inkscape (http://www.inkscape.org/) -->

<svg
   width="277.41055mm"
   height="198.2088mm"
   viewBox="0 0 277.41055 198.2088"
   version="1.1"
   id="svg5"
   inkscape:version="1.1.1 (3bf5ae0d25, 2021-09-20)"
   sodipodi:docname="standortplanung.svg"
   xmlns:inkscape="http://www.inkscape.org/namespaces/inkscape"
   xmlns:sodipodi="http://sodipodi.sourceforge.net/DTD/sodipodi-0.dtd"
   xmlns="http://www.w3.org/2000/svg"
   xmlns:svg="http://www.w3.org/2000/svg">
  <sodipodi:namedview
     id="namedview7"
     pagecolor="#ffffff"
     bordercolor="#666666"
     borderopacity="1.0"
     inkscape:pageshadow="2"
     inkscape:pageopacity="0.0"
     inkscape:pagecheckerboard="0"
     inkscape:document-units="mm"
     showgrid="false"
     fit-margin-top="0"
     fit-margin-left="0"
     fit-margin-right="0"
     fit-margin-bottom="0"
     inkscape:zoom="0.58083614"
     inkscape:cx="835.86397"
     inkscape:cy="358.96527"
     inkscape:window-width="1600"
     inkscape:window-height="837"
     inkscape:window-x="-8"
     inkscape:window-y="-8"
     inkscape:window-maximized="1"
     inkscape:current-layer="layer1" />
  <defs
     id="defs2">
    <clipPath
       clipPathUnits="userSpaceOnUse"
       id="clipPath7913">
      <path
         d="M 0,6175.71 V 0 h 10020 v 6175.71 z"
         id="path7911" />
    </clipPath>
    <clipPath
       clipPathUnits="userSpaceOnUse"
       id="clipPath7991">
      <path
         d="m 3989.97,1962.02 -325.72,-255.91 v 430.4 l 325.72,69.8 z"
         id="path7989" />
    </clipPath>
    <linearGradient
       x1="0"
       y1="0"
       x2="1"
       y2="0"
       gradientUnits="userSpaceOnUse"
       gradientTransform="matrix(-511.923,528.171,528.171,511.923,3931.02,1849)"
       spreadMethod="pad"
       id="linearGradient7997">
      <stop
         style="stop-opacity:1;stop-color:#ffffff"
         offset="0"
         id="stop7993" />
      <stop
         style="stop-opacity:1;stop-color:#dcdbd4"
         offset="1"
         id="stop7995" />
    </linearGradient>
    <clipPath
       clipPathUnits="userSpaceOnUse"
       id="clipPath8007">
      <path
         d="M 0,6175.71 V 0 h 10020 v 6175.71 z"
         id="path8005" />
    </clipPath>
    <clipPath
       clipPathUnits="userSpaceOnUse"
       id="clipPath8025">
      <path
         d="m 4238.7,3601.7 -277.52,-218.05 v 366.71 l 277.52,59.47 z"
         id="path8023" />
    </clipPath>
    <linearGradient
       x1="0"
       y1="0"
       x2="1"
       y2="0"
       gradientUnits="userSpaceOnUse"
       gradientTransform="matrix(-436.166,450.009,450.009,436.166,4188.46,3505.4)"
       spreadMethod="pad"
       id="linearGradient8031">
      <stop
         style="stop-opacity:1;stop-color:#ffffff"
         offset="0"
         id="stop8027" />
      <stop
         style="stop-opacity:1;stop-color:#dcdbd4"
         offset="1"
         id="stop8029" />
    </linearGradient>
    <clipPath
       clipPathUnits="userSpaceOnUse"
       id="clipPath8041">
      <path
         d="M 0,6175.71 V 0 h 10020 v 6175.71 z"
         id="path8039" />
    </clipPath>
    <clipPath
       clipPathUnits="userSpaceOnUse"
       id="clipPath8059">
      <path
         d="M 5180.94,1135.59 4903.42,917.551 v 366.709 l 277.52,59.47 z"
         id="path8057" />
    </clipPath>
    <linearGradient
       x1="0"
       y1="0"
       x2="1"
       y2="0"
       gradientUnits="userSpaceOnUse"
       gradientTransform="matrix(-436.166,450.009,450.009,436.166,5130.7,1039.3)"
       spreadMethod="pad"
       id="linearGradient8065">
      <stop
         style="stop-opacity:1;stop-color:#ffffff"
         offset="0"
         id="stop8061" />
      <stop
         style="stop-opacity:1;stop-color:#dcdbd4"
         offset="1"
         id="stop8063" />
    </linearGradient>
    <clipPath
       clipPathUnits="userSpaceOnUse"
       id="clipPath8075">
      <path
         d="M 0,6175.71 V 0 h 10020 v 6175.71 z"
         id="path8073" />
    </clipPath>
    <clipPath
       clipPathUnits="userSpaceOnUse"
       id="clipPath8091">
      <path
         d="M 5819.18,3499.52 5622.5,3344.98 v 259.89 l 196.68,42.15 z"
         id="path8089" />
    </clipPath>
    <linearGradient
       x1="0"
       y1="0"
       x2="1"
       y2="0"
       gradientUnits="userSpaceOnUse"
       gradientTransform="matrix(-309.108,318.919,318.919,309.108,5783.57,3431.27)"
       spreadMethod="pad"
       id="linearGradient8097">
      <stop
         style="stop-opacity:1;stop-color:#ffffff"
         offset="0"
         id="stop8093" />
      <stop
         style="stop-opacity:1;stop-color:#dcdbd4"
         offset="1"
         id="stop8095" />
    </linearGradient>
    <clipPath
       clipPathUnits="userSpaceOnUse"
       id="clipPath8107">
      <path
         d="M 0,6175.71 V 0 h 10020 v 6175.71 z"
         id="path8105" />
    </clipPath>
    <clipPath
       clipPathUnits="userSpaceOnUse"
       id="clipPath8123">
      <path
         d="m 6994.07,3592.58 -196.69,-154.54 v 259.9 l 196.69,42.14 z"
         id="path8121" />
    </clipPath>
    <linearGradient
       x1="0"
       y1="0"
       x2="1"
       y2="0"
       gradientUnits="userSpaceOnUse"
       gradientTransform="matrix(-309.122,318.934,318.934,309.122,6958.46,3524.33)"
       spreadMethod="pad"
       id="linearGradient8129">
      <stop
         style="stop-opacity:1;stop-color:#ffffff"
         offset="0"
         id="stop8125" />
      <stop
         style="stop-opacity:1;stop-color:#dcdbd4"
         offset="1"
         id="stop8127" />
    </linearGradient>
    <clipPath
       clipPathUnits="userSpaceOnUse"
       id="clipPath8139">
      <path
         d="M 0,6175.71 V 0 h 10020 v 6175.71 z"
         id="path8137" />
    </clipPath>
    <clipPath
       clipPathUnits="userSpaceOnUse"
       id="clipPath8155">
      <path
         d="m 6203.06,5069.91 -196.69,-154.53 v 259.89 l 196.69,42.14 z"
         id="path8153" />
    </clipPath>
    <linearGradient
       x1="0"
       y1="0"
       x2="1"
       y2="0"
       gradientUnits="userSpaceOnUse"
       gradientTransform="matrix(-309.108,318.919,318.919,309.108,6167.45,5001.67)"
       spreadMethod="pad"
       id="linearGradient8161">
      <stop
         style="stop-opacity:1;stop-color:#ffffff"
         offset="0"
         id="stop8157" />
      <stop
         style="stop-opacity:1;stop-color:#dcdbd4"
         offset="1"
         id="stop8159" />
    </linearGradient>
    <clipPath
       clipPathUnits="userSpaceOnUse"
       id="clipPath8171">
      <path
         d="M 0,6175.71 V 0 h 10020 v 6175.71 z"
         id="path8169" />
    </clipPath>
    <clipPath
       clipPathUnits="userSpaceOnUse"
       id="clipPath8187">
      <path
         d="m 5039.8,5023.38 -196.68,-154.53 v 259.89 l 196.68,42.14 z"
         id="path8185" />
    </clipPath>
    <linearGradient
       x1="0"
       y1="0"
       x2="1"
       y2="0"
       gradientUnits="userSpaceOnUse"
       gradientTransform="matrix(-309.122,318.934,318.934,309.122,5004.2,4955.14)"
       spreadMethod="pad"
       id="linearGradient8193">
      <stop
         style="stop-opacity:1;stop-color:#ffffff"
         offset="0"
         id="stop8189" />
      <stop
         style="stop-opacity:1;stop-color:#dcdbd4"
         offset="1"
         id="stop8191" />
    </linearGradient>
    <clipPath
       clipPathUnits="userSpaceOnUse"
       id="clipPath8203">
      <path
         d="M 0,6175.71 V 0 h 10020 v 6175.71 z"
         id="path8201" />
    </clipPath>
    <clipPath
       clipPathUnits="userSpaceOnUse"
       id="clipPath8219">
      <path
         d="m 6509.8,1233.38 -196.68,-154.53 v 259.89 l 196.68,42.15 z"
         id="path8217" />
    </clipPath>
    <linearGradient
       x1="0"
       y1="0"
       x2="1"
       y2="0"
       gradientUnits="userSpaceOnUse"
       gradientTransform="matrix(-309.122,318.934,318.934,309.122,6474.2,1165.14)"
       spreadMethod="pad"
       id="linearGradient8225">
      <stop
         style="stop-opacity:1;stop-color:#ffffff"
         offset="0"
         id="stop8221" />
      <stop
         style="stop-opacity:1;stop-color:#dcdbd4"
         offset="1"
         id="stop8223" />
    </linearGradient>
    <clipPath
       clipPathUnits="userSpaceOnUse"
       id="clipPath8235">
      <path
         d="M 0,6175.71 V 0 h 10020 v 6175.71 z"
         id="path8233" />
    </clipPath>
    <clipPath
       clipPathUnits="userSpaceOnUse"
       id="clipPath8251">
      <path
         d="m 3166.96,3615.84 -196.68,-154.53 v 259.89 l 196.68,42.15 z"
         id="path8249" />
    </clipPath>
    <linearGradient
       x1="0"
       y1="0"
       x2="1"
       y2="0"
       gradientUnits="userSpaceOnUse"
       gradientTransform="matrix(-309.122,318.934,318.934,309.122,3131.36,3547.59)"
       spreadMethod="pad"
       id="linearGradient8257">
      <stop
         style="stop-opacity:1;stop-color:#ffffff"
         offset="0"
         id="stop8253" />
      <stop
         style="stop-opacity:1;stop-color:#dcdbd4"
         offset="1"
         id="stop8255" />
    </linearGradient>
    <clipPath
       clipPathUnits="userSpaceOnUse"
       id="clipPath8267">
      <path
         d="M 0,6175.71 V 0 h 10020 v 6175.71 z"
         id="path8265" />
    </clipPath>
    <clipPath
       clipPathUnits="userSpaceOnUse"
       id="clipPath8285">
      <path
         d="m 5450.73,4352.73 -611.43,-463.24 -0.2,165.06 611.63,436.91 z"
         id="path8283" />
    </clipPath>
    <linearGradient
       x1="0"
       y1="0"
       x2="1"
       y2="0"
       gradientUnits="userSpaceOnUse"
       gradientTransform="matrix(-307.702,317.468,317.468,307.702,5228.8,4104.04)"
       spreadMethod="pad"
       id="linearGradient8291">
      <stop
         style="stop-opacity:1;stop-color:#ffffff"
         offset="0"
         id="stop8287" />
      <stop
         style="stop-opacity:1;stop-color:#dcdbd4"
         offset="1"
         id="stop8289" />
    </linearGradient>
    <clipPath
       clipPathUnits="userSpaceOnUse"
       id="clipPath8301">
      <path
         d="M 0,6175.71 V 0 h 10020 v 6175.71 z"
         id="path8299" />
    </clipPath>
    <clipPath
       clipPathUnits="userSpaceOnUse"
       id="clipPath8319">
      <path
         d="m 2292.44,4526.99 -382.87,-290.06 -0.12,103.35 382.99,273.57 z"
         id="path8317" />
    </clipPath>
    <linearGradient
       x1="0"
       y1="0"
       x2="1"
       y2="0"
       gradientUnits="userSpaceOnUse"
       gradientTransform="matrix(-192.66,198.775,198.775,192.66,2153.46,4371.27)"
       spreadMethod="pad"
       id="linearGradient8325">
      <stop
         style="stop-opacity:1;stop-color:#ffffff"
         offset="0"
         id="stop8321" />
      <stop
         style="stop-opacity:1;stop-color:#dcdbd4"
         offset="1"
         id="stop8323" />
    </linearGradient>
    <clipPath
       clipPathUnits="userSpaceOnUse"
       id="clipPath8335">
      <path
         d="M 0,6175.71 V 0 h 10020 v 6175.71 z"
         id="path8333" />
    </clipPath>
    <clipPath
       clipPathUnits="userSpaceOnUse"
       id="clipPath8353">
      <path
         d="m 2422.44,3116.99 -382.87,-290.07 -0.12,103.36 382.99,273.57 z"
         id="path8351" />
    </clipPath>
    <linearGradient
       x1="0"
       y1="0"
       x2="1"
       y2="0"
       gradientUnits="userSpaceOnUse"
       gradientTransform="matrix(-192.674,198.79,198.79,192.674,2283.46,2961.27)"
       spreadMethod="pad"
       id="linearGradient8359">
      <stop
         style="stop-opacity:1;stop-color:#ffffff"
         offset="0"
         id="stop8355" />
      <stop
         style="stop-opacity:1;stop-color:#dcdbd4"
         offset="1"
         id="stop8357" />
    </linearGradient>
    <clipPath
       clipPathUnits="userSpaceOnUse"
       id="clipPath8369">
      <path
         d="M 0,6175.71 V 0 h 10020 v 6175.71 z"
         id="path8367" />
    </clipPath>
    <clipPath
       clipPathUnits="userSpaceOnUse"
       id="clipPath8387">
      <path
         d="m 7040.31,4640.53 -350.9,-265.86 -0.11,94.73 351.01,250.74 z"
         id="path8385" />
    </clipPath>
    <linearGradient
       x1="0"
       y1="0"
       x2="1"
       y2="0"
       gradientUnits="userSpaceOnUse"
       gradientTransform="matrix(-176.568,182.172,182.172,176.568,6912.94,4497.81)"
       spreadMethod="pad"
       id="linearGradient8393">
      <stop
         style="stop-opacity:1;stop-color:#ffffff"
         offset="0"
         id="stop8389" />
      <stop
         style="stop-opacity:1;stop-color:#dcdbd4"
         offset="1"
         id="stop8391" />
    </linearGradient>
    <clipPath
       clipPathUnits="userSpaceOnUse"
       id="clipPath8403">
      <path
         d="M 0,6175.71 V 0 h 10020 v 6175.71 z"
         id="path8401" />
    </clipPath>
    <clipPath
       clipPathUnits="userSpaceOnUse"
       id="clipPath8419">
      <path
         d="m 7915.95,2465.13 -483.48,-370.06 0.68,168.07 482.8,340.71 z"
         id="path8417" />
    </clipPath>
    <linearGradient
       x1="0"
       y1="0"
       x2="1"
       y2="0"
       gradientUnits="userSpaceOnUse"
       gradientTransform="matrix(-277.734,286.549,286.549,277.734,7748.63,2272.67)"
       spreadMethod="pad"
       id="linearGradient8425">
      <stop
         style="stop-opacity:1;stop-color:#ffffff"
         offset="0"
         id="stop8421" />
      <stop
         style="stop-opacity:1;stop-color:#dcdbd4"
         offset="1"
         id="stop8423" />
    </linearGradient>
    <clipPath
       clipPathUnits="userSpaceOnUse"
       id="clipPath8435">
      <path
         d="M 0,6175.71 V 0 h 10020 v 6175.71 z"
         id="path8433" />
    </clipPath>
    <clipPath
       clipPathUnits="userSpaceOnUse"
       id="clipPath8451">
      <path
         d="m 7380.14,761.551 -344.37,-260.891 -0.11,92.961 344.48,246.059 z"
         id="path8449" />
    </clipPath>
    <linearGradient
       x1="0"
       y1="0"
       x2="1"
       y2="0"
       gradientUnits="userSpaceOnUse"
       gradientTransform="matrix(-173.302,178.802,178.802,173.302,7255.15,621.48)"
       spreadMethod="pad"
       id="linearGradient8457">
      <stop
         style="stop-opacity:1;stop-color:#ffffff"
         offset="0"
         id="stop8453" />
      <stop
         style="stop-opacity:1;stop-color:#dcdbd4"
         offset="1"
         id="stop8455" />
    </linearGradient>
    <clipPath
       clipPathUnits="userSpaceOnUse"
       id="clipPath8467">
      <path
         d="M 0,6175.71 V 0 h 10020 v 6175.71 z"
         id="path8465" />
    </clipPath>
    <clipPath
       clipPathUnits="userSpaceOnUse"
       id="clipPath8483">
      <path
         d="m 6573.96,3179.08 -341.84,-259 -0.11,92.28 341.95,244.27 z"
         id="path8481" />
    </clipPath>
    <linearGradient
       x1="0"
       y1="0"
       x2="1"
       y2="0"
       gradientUnits="userSpaceOnUse"
       gradientTransform="matrix(-172.009,177.469,177.469,172.009,6449.87,3040.04)"
       spreadMethod="pad"
       id="linearGradient8489">
      <stop
         style="stop-opacity:1;stop-color:#ffffff"
         offset="0"
         id="stop8485" />
      <stop
         style="stop-opacity:1;stop-color:#dcdbd4"
         offset="1"
         id="stop8487" />
    </linearGradient>
    <clipPath
       clipPathUnits="userSpaceOnUse"
       id="clipPath8499">
      <path
         d="M 0,6175.71 V 0 h 10020 v 6175.71 z"
         id="path8497" />
    </clipPath>
    <clipPath
       clipPathUnits="userSpaceOnUse"
       id="clipPath8515">
      <path
         d="m 6399.47,2190.31 -341.84,-258.99 -0.1,92.27 341.94,244.28 z"
         id="path8513" />
    </clipPath>
    <linearGradient
       x1="0"
       y1="0"
       x2="1"
       y2="0"
       gradientUnits="userSpaceOnUse"
       gradientTransform="matrix(-172.009,177.469,177.469,172.009,6275.39,2051.27)"
       spreadMethod="pad"
       id="linearGradient8521">
      <stop
         style="stop-opacity:1;stop-color:#ffffff"
         offset="0"
         id="stop8517" />
      <stop
         style="stop-opacity:1;stop-color:#dcdbd4"
         offset="1"
         id="stop8519" />
    </linearGradient>
    <clipPath
       clipPathUnits="userSpaceOnUse"
       id="clipPath8531">
      <path
         d="M 0,6175.71 V 0 h 10020 v 6175.71 z"
         id="path8529" />
    </clipPath>
    <clipPath
       clipPathUnits="userSpaceOnUse"
       id="clipPath8559">
      <path
         d="m 5583.62,2392.43 -325.71,-255.92 v 430.41 l 325.71,-93.07 z"
         id="path8557" />
    </clipPath>
    <linearGradient
       x1="0"
       y1="0"
       x2="1"
       y2="0"
       gradientUnits="userSpaceOnUse"
       gradientTransform="matrix(-511.909,528.157,528.157,511.909,5483.96,2239.98)"
       spreadMethod="pad"
       id="linearGradient8565">
      <stop
         style="stop-opacity:1;stop-color:#ffffff"
         offset="0"
         id="stop8561" />
      <stop
         style="stop-opacity:1;stop-color:#dcdbd4"
         offset="1"
         id="stop8563" />
    </linearGradient>
    <clipPath
       clipPathUnits="userSpaceOnUse"
       id="clipPath8575">
      <path
         d="M 0,6175.71 V 0 h 10020 v 6175.71 z"
         id="path8573" />
    </clipPath>
  </defs>
  <g
     inkscape:label="Ebene 1"
     inkscape:groupmode="layer"
     id="layer1"
     transform="translate(116.38472,-53.950811)">
    <g
       id="layer1-5"
       transform="translate(-65.345897,23.341201)">
      <g
         id="layer1-0"
         style="display:inline"
         transform="matrix(0.26458333,0,0,0.26458333,-76.071415,18.6137)" />
      <g
         id="g7903"
         transform="matrix(0.35277776,0,0,-0.35277776,-76.071415,236.47867)">
        <path
           d="m 369.918,262.508 c -1.059,0 -2.105,0.479 -2.791,1.39 -1.159,1.539 -0.851,3.728 0.689,4.888 L 725.751,538.15 c 1.537,1.158 3.727,0.852 4.888,-0.688 1.159,-1.539 0.85,-3.727 -0.689,-4.887 L 372.015,263.21 c -0.629,-0.474 -1.366,-0.702 -2.097,-0.702"
           style="fill:#ffffff;fill-opacity:1;fill-rule:nonzero;stroke:none;stroke-width:0.1"
           id="path7917" />
        <path
           d="m 510.672,164.795 c -1.06,0 -2.106,0.48 -2.791,1.391 -1.159,1.539 -0.851,3.727 0.689,4.887 l 343.16,258.242 c 1.541,1.159 3.728,0.851 4.888,-0.69 1.158,-1.54 0.85,-3.728 -0.69,-4.887 L 512.768,165.495 c -0.629,-0.472 -1.366,-0.7 -2.096,-0.7"
           style="fill:#ffffff;fill-opacity:1;fill-rule:nonzero;stroke:none;stroke-width:0.1"
           id="path7919" />
        <path
           d="m 530.446,513.771 c -1.06,0 -2.108,0.482 -2.794,1.396 -1.157,1.542 -0.843,3.729 0.699,4.885 l 83.754,62.816 c 1.541,1.155 3.728,0.845 4.886,-0.698 1.156,-1.541 0.843,-3.729 -0.699,-4.885 l -83.754,-62.816 c -0.627,-0.471 -1.362,-0.698 -2.092,-0.698"
           style="fill:#ffffff;fill-opacity:1;fill-rule:nonzero;stroke:none;stroke-width:0.1"
           id="path7921" />
        <path
           d="m 651.425,62.4281 c -1.038,0 -2.067,0.461 -2.753,1.3438 -1.187,1.5191 -0.915,3.7121 0.605,4.8972 l 116.326,90.7339 c 1.518,1.185 3.713,0.916 4.897,-0.605 1.186,-1.519 0.914,-3.713 -0.605,-4.898 L 653.568,63.1672 c -0.636,-0.4981 -1.392,-0.7391 -2.143,-0.7391"
           style="fill:#ffffff;fill-opacity:1;fill-rule:nonzero;stroke:none;stroke-width:0.1"
           id="path7923" />
        <path
           d="m 471.803,191.772 5.61,-7.425 -152.386,-115.1618 -5.61,7.425"
           style="fill:#ffffff;fill-opacity:1;fill-rule:nonzero;stroke:none;stroke-width:0.1"
           id="path7925" />
        <path
           d="m 74.4512,242.732 c -1.0571,0 -2.1016,0.479 -2.7875,1.388 -1.1617,1.538 -0.8563,3.725 0.682,4.888 L 475.995,553.78 c 1.537,1.161 3.726,0.856 4.888,-0.682 1.161,-1.538 0.855,-3.727 -0.683,-4.888 L 76.5512,243.437 c -0.6293,-0.475 -1.368,-0.705 -2.1,-0.705"
           style="fill:#ffffff;fill-opacity:1;fill-rule:nonzero;stroke:none;stroke-width:0.1"
           id="path7927" />
        <path
           d="m 706.093,21.7141 c -0.705,0 -1.416,0.2121 -2.031,0.655 L 370.207,261.999 c -1.566,1.125 -1.924,3.304 -0.8,4.87 1.124,1.565 3.305,1.923 4.87,0.801 L 708.13,28.0398 c 1.567,-1.125 1.925,-3.3046 0.802,-4.8699 -0.682,-0.9508 -1.753,-1.4558 -2.839,-1.4558"
           style="fill:#ffffff;fill-opacity:1;fill-rule:nonzero;stroke:none;stroke-width:0.1"
           id="path7929" />
        <path
           d="m 369.912,262.508 c -0.706,0 -1.418,0.213 -2.035,0.657 L 102.655,453.938 c -1.564,1.126 -1.921,3.307 -0.795,4.871 1.125,1.566 3.307,1.92 4.871,0.796 L 371.953,268.831 c 1.564,-1.126 1.921,-3.307 0.795,-4.871 -0.682,-0.948 -1.751,-1.452 -2.836,-1.452"
           style="fill:#ffffff;fill-opacity:1;fill-rule:nonzero;stroke:none;stroke-width:0.1"
           id="path7931" />
        <path
           d="m 827.071,117.101 c -0.695,0 -1.397,0.206 -2.009,0.638 L 350.454,452.758 c -1.575,1.11 -1.95,3.288 -0.839,4.863 1.112,1.575 3.29,1.949 4.864,0.838 L 829.087,123.442 c 1.575,-1.112 1.95,-3.29 0.839,-4.864 -0.681,-0.962 -1.759,-1.477 -2.855,-1.477"
           style="fill:#ffffff;fill-opacity:1;fill-rule:nonzero;stroke:none;stroke-width:0.1"
           id="path7933" />
        <path
           d="m 821.255,397.445 c -0.693,0 -1.395,0.207 -2.005,0.636 L 587.762,560.937 c -1.575,1.109 -1.955,3.285 -0.846,4.861 1.109,1.578 3.283,1.957 4.862,0.847 L 823.267,403.789 c 1.575,-1.108 1.955,-3.285 0.845,-4.862 -0.679,-0.966 -1.76,-1.482 -2.857,-1.482"
           style="fill:#ffffff;fill-opacity:1;fill-rule:nonzero;stroke:none;stroke-width:0.1"
           id="path7935" />
        <path
           d="m 757.275,349.752 c -0.697,0 -1.4,0.208 -2.013,0.642 L 476.081,548.147 c -1.573,1.114 -1.945,3.292 -0.831,4.865 1.114,1.574 3.293,1.946 4.865,0.831 L 759.297,356.09 c 1.572,-1.115 1.944,-3.292 0.83,-4.865 -0.681,-0.961 -1.758,-1.473 -2.852,-1.473"
           style="fill:#ffffff;fill-opacity:1;fill-rule:nonzero;stroke:none;stroke-width:0.1"
           id="path7937" />
        <path
           d="m 492.836,353.242 c -1.408,0 -2.8,0.637 -3.715,1.847 -1.551,2.049 -1.145,4.967 0.904,6.517 l 187.672,141.917 c 2.053,1.548 4.97,1.145 6.519,-0.905 1.549,-2.049 1.144,-4.967 -0.904,-6.517 L 495.639,354.183 c -0.84,-0.634 -1.826,-0.941 -2.803,-0.941"
           style="fill:#ffffff;fill-opacity:1;fill-rule:nonzero;stroke:none;stroke-width:0.1"
           id="path7939" />
        <path
           d="m 525.791,210.986 -0.086,0.2 0.289,-0.196 -0.203,-0.004 m 0.227,0.004 31.982,25.538 v 4.887 l 12.769,-9.54 -27.529,-20.55 -17.222,-0.335 m -0.018,27.385 -15.033,7.02 -10.379,24.092 4.265,11.633 46.011,-34.374 -24.864,7.23 v -15.601"
           style="fill:#363f55;fill-opacity:1;fill-rule:nonzero;stroke:none;stroke-width:0.1"
           id="path7941" />
        <path
           d="m 400.935,164.406 -34.51,3.54 -0.103,0.239 32.678,25.302 v 16.077 l 32.18,-23.056 -30.245,-22.102 M 366,195.335 l -16.16,11.109 -8.618,20.003 14.734,13.959 34.045,-24.394 L 366,210.936 v -15.601"
           style="fill:#363f55;fill-opacity:1;fill-rule:nonzero;stroke:none;stroke-width:0.1"
           id="path7943" />
        <path
           d="m 425.521,333.078 -29.403,3.016 -0.343,0.797 1.225,-0.797 v -0.043 l 0.007,0.024 -0.007,-0.01 v 0.021 l 26,21.771 v 14.323 l 28.291,-20.27 -25.77,-18.832 M 397,359.43 l -15.188,9.869 -7.169,16.64 12.554,11.894 L 416.133,377.1 397,372.724 V 359.43"
           style="fill:#363f55;fill-opacity:1;fill-rule:nonzero;stroke:none;stroke-width:0.1"
           id="path7945" />
        <path
           d="M 519.745,86.4672 490.342,89.484 490.076,90.1012 491,89.484 v -0.0418 l 0.007,0.0219 L 491,89.4559 v 0.0203 l 27,21.7698 v 13.768 l 27.515,-19.713 -25.77,-18.8338 M 491,112.821 l -15.035,10.034 -7.098,16.474 12.554,11.893 29.058,-20.819 L 491,126.114 v -13.293"
           style="fill:#363f55;fill-opacity:1;fill-rule:nonzero;stroke:none;stroke-width:0.1"
           id="path7947" />
        <path
           d="m 583.088,330.752 -20.838,2.137 -0.247,0.573 0.292,-0.19 19.705,15.04 v 9.65 l 19.351,-13.865 -18.263,-13.345 M 563,349.428 l -10.926,7.08 -5.043,11.706 8.897,8.429 20.637,-14.786 L 563,358.848 v -9.42"
           style="fill:#363f55;fill-opacity:1;fill-rule:nonzero;stroke:none;stroke-width:0.1"
           id="path7949" />
        <path
           d="m 700.577,340.058 -20.839,2.137 -0.292,0.678 0.739,-0.489 18.815,15.234 v 10.001 l 19.839,-14.215 -18.262,-13.346 M 681,358.733 l -11.636,7.541 -4.845,11.246 8.898,8.429 20.586,-14.75 L 681,368.155 v -9.422"
           style="fill:#363f55;fill-opacity:1;fill-rule:nonzero;stroke:none;stroke-width:0.1"
           id="path7951" />
        <path
           d="m 621.476,487.791 -20.839,2.138 -0.332,0.77 0.879,-0.581 18.816,15.234 v 9.928 l 19.738,-14.143 -18.262,-13.346 M 601,506.467 l -10.546,7.098 -5.036,11.689 8.897,8.429 20.546,-14.721 L 601,515.888 v -9.421"
           style="fill:#363f55;fill-opacity:1;fill-rule:nonzero;stroke:none;stroke-width:0.1"
           id="path7953" />
        <path
           d="m 505.15,483.138 -20.838,2.138 -0.258,0.597 0.63,-0.408 19.316,15.234 v 9.694 l 19.412,-13.909 -18.262,-13.346 m -20.15,18.676 -10.84,7.025 -5.067,11.761 8.897,8.429 20.622,-14.775 L 485,511.235 v -9.421"
           style="fill:#363f55;fill-opacity:1;fill-rule:nonzero;stroke:none;stroke-width:0.1"
           id="path7955" />
        <path
           d="m 652.15,104.138 -20.839,2.138 -0.257,0.598 0.629,-0.409 19.317,15.233 v 9.695 l 19.412,-13.909 -18.262,-13.346 m -20.15,18.675 -10.84,7.026 -5.067,11.761 8.897,8.43 20.622,-14.776 L 632,132.235 v -9.422"
           style="fill:#363f55;fill-opacity:1;fill-rule:nonzero;stroke:none;stroke-width:0.1"
           id="path7957" />
        <path
           d="m 317.866,342.384 -20.838,2.138 -0.176,0.408 0.331,-0.219 18.817,15.234 v 10.208 L 336.128,355.73 317.866,342.384 M 298,361.059 l -11.234,7.282 -4.958,11.505 8.898,8.43 20.516,-14.7 L 298,370.481 v -9.422"
           style="fill:#363f55;fill-opacity:1;fill-rule:nonzero;stroke:none;stroke-width:0.1"
           id="path7959" />
        <path
           d="M 503.528,385.425 484,387.428 v 10e-4 l 60,46.302 v 9.901 l 19.351,-13.865 -59.823,-44.342 m -19.528,2.003 -0.07,0.007 -0.028,0.065 0.098,-0.065 v -0.007 m 0,15.561 -9.453,6.224 -4.932,11.446 51.014,39.718 20.344,-14.576 L 484,411.851 v -8.862"
           style="fill:#363f55;fill-opacity:1;fill-rule:nonzero;stroke:none;stroke-width:0.1"
           id="path7961" />
        <path
           d="M 203.23,421.486 191,422.74 v 10e-4 l 37,28.992 v 6.609 l 12.687,-9.091 -37.457,-27.765 m -12.23,1.254 -0.043,0.004 -0.019,0.043 0.062,-0.043 v -0.004 m 0,9.744 -6.021,4.137 -2.985,6.928 31.943,24.869 12.491,-8.949 L 191,438.033 v -5.549"
           style="fill:#363f55;fill-opacity:1;fill-rule:nonzero;stroke:none;stroke-width:0.1"
           id="path7963" />
        <path
           d="M 216.23,280.486 204,281.74 v 10e-4 l 37,28.992 v 6.609 l 12.688,-9.091 -37.458,-27.765 m -12.23,1.254 -0.044,0.005 -0.018,0.042 0.062,-0.042 v -0.005 m 0,9.744 -6.022,4.137 -2.984,6.928 31.943,24.87 12.49,-8.95 L 204,297.034 v -5.55"
           style="fill:#363f55;fill-opacity:1;fill-rule:nonzero;stroke:none;stroke-width:0.1"
           id="path7965" />
        <path
           d="M 680.188,435.445 669,436.592 v 0.004 l 34,26.572 v 5.979 l 11.52,-8.254 -34.332,-25.448 m -11.188,1.147 -0.059,0.006 -0.023,0.056 0.082,-0.056 v -0.006 m 0,8.933 -5.505,3.714 -2.768,6.427 29.275,22.794 11.496,-8.237 L 669,450.611 v -5.086"
           style="fill:#363f55;fill-opacity:1;fill-rule:nonzero;stroke:none;stroke-width:0.1"
           id="path7967" />
        <path
           d="m 714.615,48.0809 -11.038,1.1332 -0.139,0.3218 L 738,75.2879 V 80.441 L 748.308,73.0551 714.615,48.0809 M 703,57.973 l -4.614,3.2911 -2.87,6.6629 28.731,22.3679 L 735.941,81.916 703,62.9641 V 57.973"
           style="fill:#363f55;fill-opacity:1;fill-rule:nonzero;stroke:none;stroke-width:0.1"
           id="path7969" />
        <path
           d="m 634.169,290.038 -10.957,1.124 -0.091,0.211 0.32,-0.22 34.411,25.884 -0.521,5.161 10.284,-7.369 -33.446,-24.791 m -12.169,9.821 -3.784,2.901 -3.006,6.978 28.52,22.205 11.46,-8.211 -33.19,-18.92 v -4.953"
           style="fill:#363f55;fill-opacity:1;fill-rule:nonzero;stroke:none;stroke-width:0.1"
           id="path7971" />
        <path
           d="m 616.721,191.161 -10.958,1.125 -0.008,0.018 34.622,25.856 -0.347,5.055 10.136,-7.262 -33.445,-24.792 m -11.721,9.822 -4.293,3.038 -2.946,6.84 28.52,22.205 11.565,-8.286 L 605,205.935 v -4.952"
           style="fill:#363f55;fill-opacity:1;fill-rule:nonzero;stroke:none;stroke-width:0.1"
           id="path7973" />
        <path
           d="m 138.267,319.119 -19.599,2.011 -0.132,0.305 0.464,-0.305 v -0.029 l 0.005,0.015 L 119,321.11 v 0.014 l 60,46.302 v 9.713 l 19.088,-13.677 -59.821,-44.343 M 119,336.684 l -9.819,6.464 -4.827,11.206 51.013,39.718 L 175.83,379.41 119,345.546 v -8.862"
           style="fill:#363f55;fill-opacity:1;fill-rule:nonzero;stroke:none;stroke-width:0.1"
           id="path7975" />
        <path
           d="m 761.77,205.12 -19.597,2.011 -1.305,3.028 2.7,-1.865 48.345,36.765 -0.45,9.694 -12.435,3.881 -4.669,-3.878 -6.22,3.878 -14.892,1.054 7.522,5.728 31.989,-9.306 20.357,-12.214 -51.345,-38.776"
           style="fill:#363f55;fill-opacity:1;fill-rule:nonzero;stroke:none;stroke-width:0.1"
           id="path7977" />
        <path
           d="m 366,167.895 v 0.017 l 0.008,0.011 -0.008,-0.028 m 0,0.017 v 0.023 -0.023 m 0,0.023 v 0.011 l -76,52.244 v 27.389 l 59.84,-41.135 16.482,-38.259 -0.322,-0.25 m 33,41.629 -8.999,6.448 8.999,1.904 v -8.352"
           style="fill:#31384a;fill-opacity:1;fill-rule:nonzero;stroke:none;stroke-width:0.1"
           id="path7979" />
        <path
           d="M 366.322,168.185 349.84,206.444 366,195.335 v 15.601 l 24.001,5.076 8.999,-6.448 v -16.077 l -32.678,-25.302"
           style="fill:#272c3a;fill-opacity:1;fill-rule:nonzero;stroke:none;stroke-width:0.1"
           id="path7981" />
        <path
           d="m 366.475,170.627 -76.534,52.278 v 27.389 l 76.534,-52.279 v -27.388"
           style="fill:#e5e6e1;fill-opacity:1;fill-rule:nonzero;stroke:none;stroke-width:0.1"
           id="path7983" />
        <g
           id="g7985"
           transform="scale(0.1)">
          <g
             id="g7987"
             clip-path="url(#clipPath7991)">
            <path
               d="m 3989.97,1962.02 -325.72,-255.91 v 430.4 l 325.72,69.8 v -244.29"
               style="fill:url(#linearGradient7997);fill-opacity:1;fill-rule:nonzero;stroke:none"
               id="path7999" />
          </g>
        </g>
        <g
           id="g8001"
           transform="scale(0.1)">
          <g
             id="g8003"
             clip-path="url(#clipPath8007)">
            <path
               d="m 3987.4,2204.83 -318.94,-242.89 -769.4,536.64 318.95,242.91 769.39,-536.66"
               style="fill:#ffffff;fill-opacity:1;fill-rule:nonzero;stroke:none"
               id="path8009" />
            <path
               d="m 3970,3360.51 v 0.14 l 0.07,0.1 -0.07,-0.24 m 0,0.14 v 0.21 -0.21"
               style="fill:#272c3a;fill-opacity:1;fill-rule:nonzero;stroke:none"
               id="path8011" />
            <path
               d="M 3957.75,3368.91 3590,3607.86 v 233.36 l 228.12,-148.23 139.63,-324.08 m 272.25,352.89 -68.67,49.2 68.67,15.71 v -64.91"
               style="fill:#31384a;fill-opacity:1;fill-rule:nonzero;stroke:none"
               id="path8013" />
            <path
               d="m 3970,3360.86 v 0.08 l -12.25,7.97 -139.63,324.08 151.88,-98.69 v 132.94 l 191.33,43.76 68.67,-49.2 v -143.23 l -260,-217.71"
               style="fill:#272c3a;fill-opacity:1;fill-rule:nonzero;stroke:none"
               id="path8015" />
            <path
               d="m 3961.61,3383.78 -364.68,247.2 v 233.36 l 364.68,-247.2 v -233.36"
               style="fill:#e5e6e1;fill-opacity:1;fill-rule:nonzero;stroke:none"
               id="path8017" />
          </g>
        </g>
        <g
           id="g8019"
           transform="scale(0.1)">
          <g
             id="g8021"
             clip-path="url(#clipPath8025)">
            <path
               d="m 4238.7,3601.7 -277.52,-218.05 v 366.71 l 277.52,59.47 V 3601.7"
               style="fill:url(#linearGradient8031);fill-opacity:1;fill-rule:nonzero;stroke:none"
               id="path8033" />
          </g>
        </g>
        <g
           id="g8035"
           transform="scale(0.1)">
          <g
             id="g8037"
             clip-path="url(#clipPath8041)">
            <path
               d="m 4236.51,3808.58 -271.75,-206.95 -368.13,259.01 271.76,206.96 368.12,-259.02"
               style="fill:#ffffff;fill-opacity:1;fill-rule:nonzero;stroke:none"
               id="path8043" />
            <path
               d="m 4910,894.422 v 0.137 l 0.07,0.082 -0.07,-0.219 m 0,0.137 v 0.203 -0.203"
               style="fill:#272c3a;fill-opacity:1;fill-rule:nonzero;stroke:none"
               id="path8045" />
            <path
               d="M 4900.76,901.012 4540,1141.76 v 233.36 l 219.65,-146.57 141.11,-327.538 m 279.24,349.128 -75.21,53.89 75.21,16.56 v -70.45"
               style="fill:#31384a;fill-opacity:1;fill-rule:nonzero;stroke:none"
               id="path8047" />
            <path
               d="m 4910,894.762 v 0.078 l -9.24,6.172 -141.11,327.538 150.35,-100.34 v 132.93 l 194.79,42.89 75.21,-53.89 V 1112.46 L 4910,894.762"
               style="fill:#272c3a;fill-opacity:1;fill-rule:nonzero;stroke:none"
               id="path8049" />
            <path
               d="m 4903.84,917.68 -364.67,247.2 v 233.36 l 364.67,-247.2 V 917.68"
               style="fill:#e5e6e1;fill-opacity:1;fill-rule:nonzero;stroke:none"
               id="path8051" />
          </g>
        </g>
        <g
           id="g8053"
           transform="scale(0.1)">
          <g
             id="g8055"
             clip-path="url(#clipPath8059)">
            <path
               d="M 5180.94,1135.59 4903.42,917.551 v 366.709 l 277.52,59.47 v -208.14"
               style="fill:url(#linearGradient8065);fill-opacity:1;fill-rule:nonzero;stroke:none"
               id="path8067" />
          </g>
        </g>
        <g
           id="g8069"
           transform="scale(0.1)">
          <g
             id="g8071"
             clip-path="url(#clipPath8075)">
            <path
               d="m 5178.75,1342.48 -271.76,-206.96 -368.12,259.02 271.76,206.96 368.12,-259.02"
               style="fill:#ffffff;fill-opacity:1;fill-rule:nonzero;stroke:none"
               id="path8077" />
            <path
               d="M 5620.03,3334.62 5360,3503.88 v 165.38 l 160.74,-104.18 99.29,-230.46 m 199.97,245 -54.35,38.95 54.35,12.05 v -51"
               style="fill:#31384a;fill-opacity:1;fill-rule:nonzero;stroke:none"
               id="path8079" />
            <path
               d="m 5622.95,3332.72 -2.92,1.9 -99.29,230.46 109.26,-70.8 v 94.2 l 135.65,30.09 54.35,-38.95 v -96.5 l -197.05,-150.4"
               style="fill:#272c3a;fill-opacity:1;fill-rule:nonzero;stroke:none"
               id="path8081" />
            <path
               d="m 5622.8,3345.07 -258.44,175.2 v 165.38 l 258.44,-175.19 v -165.39"
               style="fill:#e5e6e1;fill-opacity:1;fill-rule:nonzero;stroke:none"
               id="path8083" />
          </g>
        </g>
        <g
           id="g8085"
           transform="scale(0.1)">
          <g
             id="g8087"
             clip-path="url(#clipPath8091)">
            <path
               d="M 5819.18,3499.52 5622.5,3344.98 v 259.89 l 196.68,42.15 v -147.5"
               style="fill:url(#linearGradient8097);fill-opacity:1;fill-rule:nonzero;stroke:none"
               id="path8099" />
          </g>
        </g>
        <g
           id="g8101"
           transform="scale(0.1)">
          <g
             id="g8103"
             clip-path="url(#clipPath8107)">
            <path
               d="m 5817.63,3646.13 -192.6,-146.67 -260.88,183.56 192.59,146.67 260.89,-183.56"
               style="fill:#ffffff;fill-opacity:1;fill-rule:nonzero;stroke:none"
               id="path8109" />
            <path
               d="M 6794.46,3428.73 6540,3596.94 v 165.38 l 153.64,-99.58 100.82,-234.01 m 195.54,247.46 -49.97,35.8 49.97,11.7 v -47.5"
               style="fill:#31384a;fill-opacity:1;fill-rule:nonzero;stroke:none"
               id="path8111" />
            <path
               d="m 6801.85,3423.84 -7.39,4.89 -100.82,234.01 116.36,-75.41 v 94.22 l 130.03,30.44 49.97,-35.8 v -100.01 l -188.15,-152.34"
               style="fill:#272c3a;fill-opacity:1;fill-rule:nonzero;stroke:none"
               id="path8113" />
            <path
               d="m 6797.7,3438.13 -258.46,175.2 v 165.38 l 258.46,-175.19 v -165.39"
               style="fill:#e5e6e1;fill-opacity:1;fill-rule:nonzero;stroke:none"
               id="path8115" />
          </g>
        </g>
        <g
           id="g8117"
           transform="scale(0.1)">
          <g
             id="g8119"
             clip-path="url(#clipPath8123)">
            <path
               d="m 6994.07,3592.58 -196.69,-154.54 v 259.9 l 196.69,42.14 v -147.5"
               style="fill:url(#linearGradient8129);fill-opacity:1;fill-rule:nonzero;stroke:none"
               id="path8131" />
          </g>
        </g>
        <g
           id="g8133"
           transform="scale(0.1)">
          <g
             id="g8135"
             clip-path="url(#clipPath8139)">
            <path
               d="m 6992.51,3739.19 -192.59,-146.66 -260.88,183.56 192.58,146.66 260.89,-183.56"
               style="fill:#ffffff;fill-opacity:1;fill-rule:nonzero;stroke:none"
               id="path8141" />
            <path
               d="M 6003.05,4906.99 5750,5074.28 v 165.38 l 154.54,-104.01 98.51,-228.66 m 196.95,245.81 -51.39,36.82 51.39,11.4 v -48.22"
               style="fill:#31384a;fill-opacity:1;fill-rule:nonzero;stroke:none"
               id="path8143" />
            <path
               d="m 6011.84,4901.18 -8.79,5.81 -98.51,228.66 105.46,-70.98 v 94.21 l 138.61,30.74 51.39,-36.82 v -99.28 l -188.16,-152.34"
               style="fill:#272c3a;fill-opacity:1;fill-rule:nonzero;stroke:none"
               id="path8145" />
            <path
               d="m 6006.68,4915.47 -258.45,175.19 v 165.39 l 258.45,-175.2 v -165.38"
               style="fill:#e5e6e1;fill-opacity:1;fill-rule:nonzero;stroke:none"
               id="path8147" />
          </g>
        </g>
        <g
           id="g8149"
           transform="scale(0.1)">
          <g
             id="g8151"
             clip-path="url(#clipPath8155)">
            <path
               d="m 6203.06,5069.91 -196.69,-154.53 v 259.89 l 196.69,42.14 v -147.5"
               style="fill:url(#linearGradient8161);fill-opacity:1;fill-rule:nonzero;stroke:none"
               id="path8163" />
          </g>
        </g>
        <g
           id="g8165"
           transform="scale(0.1)">
          <g
             id="g8167"
             clip-path="url(#clipPath8171)">
            <path
               d="m 6201.5,5216.52 -192.59,-146.66 -260.88,183.56 192.58,146.67 260.89,-183.57"
               style="fill:#ffffff;fill-opacity:1;fill-rule:nonzero;stroke:none"
               id="path8173" />
            <path
               d="M 4840.54,4858.73 4580,5027.75 v 165.38 l 161.6,-104.74 98.94,-229.66 m 199.46,245.2 -53.88,38.61 53.88,11.95 v -50.56"
               style="fill:#31384a;fill-opacity:1;fill-rule:nonzero;stroke:none"
               id="path8175" />
            <path
               d="m 4846.84,4854.65 -6.3,4.08 -98.94,229.66 108.4,-70.25 v 94.21 l 136.12,30.19 53.88,-38.61 v -96.94 l -193.16,-152.34"
               style="fill:#272c3a;fill-opacity:1;fill-rule:nonzero;stroke:none"
               id="path8177" />
            <path
               d="m 4843.43,4868.94 -258.46,175.19 v 165.39 l 258.46,-175.2 v -165.38"
               style="fill:#e5e6e1;fill-opacity:1;fill-rule:nonzero;stroke:none"
               id="path8179" />
          </g>
        </g>
        <g
           id="g8181"
           transform="scale(0.1)">
          <g
             id="g8183"
             clip-path="url(#clipPath8187)">
            <path
               d="m 5039.8,5023.38 -196.68,-154.53 v 259.89 l 196.68,42.14 v -147.5"
               style="fill:url(#linearGradient8193);fill-opacity:1;fill-rule:nonzero;stroke:none"
               id="path8195" />
          </g>
        </g>
        <g
           id="g8197"
           transform="scale(0.1)">
          <g
             id="g8199"
             clip-path="url(#clipPath8203)">
            <path
               d="m 5038.24,5170 -192.59,-146.67 -260.88,183.56 192.58,146.67 260.89,-183.56"
               style="fill:#ffffff;fill-opacity:1;fill-rule:nonzero;stroke:none"
               id="path8205" />
            <path
               d="m 6310.54,1068.74 -260.54,169 v 165.39 l 161.6,-104.74 98.94,-229.65 m 199.46,245.19 -53.88,38.61 53.88,11.95 v -50.56"
               style="fill:#31384a;fill-opacity:1;fill-rule:nonzero;stroke:none"
               id="path8207" />
            <path
               d="m 6316.83,1064.65 -6.29,4.09 -98.94,229.65 108.4,-70.26 v 94.22 l 136.12,30.19 53.88,-38.61 v -96.95 l -193.17,-152.33"
               style="fill:#272c3a;fill-opacity:1;fill-rule:nonzero;stroke:none"
               id="path8209" />
            <path
               d="m 6313.43,1078.93 -258.46,175.2 v 165.39 l 258.46,-175.2 v -165.39"
               style="fill:#e5e6e1;fill-opacity:1;fill-rule:nonzero;stroke:none"
               id="path8211" />
          </g>
        </g>
        <g
           id="g8213"
           transform="scale(0.1)">
          <g
             id="g8215"
             clip-path="url(#clipPath8219)">
            <path
               d="m 6509.8,1233.38 -196.68,-154.53 v 259.89 l 196.68,42.15 v -147.51"
               style="fill:url(#linearGradient8225);fill-opacity:1;fill-rule:nonzero;stroke:none"
               id="path8227" />
          </g>
        </g>
        <g
           id="g8229"
           transform="scale(0.1)">
          <g
             id="g8231"
             clip-path="url(#clipPath8235)">
            <path
               d="m 6508.24,1380 -192.59,-146.67 -260.88,183.56 192.58,146.67 260.89,-183.56"
               style="fill:#ffffff;fill-opacity:1;fill-rule:nonzero;stroke:none"
               id="path8237" />
            <path
               d="M 2968.52,3449.3 2710,3620.2 v 165.39 l 157.66,-102.18 100.86,-234.11 m 191.48,252.23 -47.78,34.23 47.78,11.19 v -45.42"
               style="fill:#31384a;fill-opacity:1;fill-rule:nonzero;stroke:none"
               id="path8239" />
            <path
               d="m 2971.83,3447.11 -3.31,2.19 -100.86,234.11 112.34,-72.82 v 94.22 l 132.22,30.95 47.78,-34.23 v -102.08 l -188.17,-152.34"
               style="fill:#272c3a;fill-opacity:1;fill-rule:nonzero;stroke:none"
               id="path8241" />
            <path
               d="m 2970.58,3461.4 -258.45,175.19 v 165.39 l 258.45,-175.2 V 3461.4"
               style="fill:#e5e6e1;fill-opacity:1;fill-rule:nonzero;stroke:none"
               id="path8243" />
          </g>
        </g>
        <g
           id="g8245"
           transform="scale(0.1)">
          <g
             id="g8247"
             clip-path="url(#clipPath8251)">
            <path
               d="m 3166.96,3615.84 -196.68,-154.53 v 259.89 l 196.68,42.15 v -147.51"
               style="fill:url(#linearGradient8257);fill-opacity:1;fill-rule:nonzero;stroke:none"
               id="path8259" />
          </g>
        </g>
        <g
           id="g8261"
           transform="scale(0.1)">
          <g
             id="g8263"
             clip-path="url(#clipPath8267)">
            <path
               d="m 3165.41,3762.46 -192.6,-146.67 -260.88,183.56 192.58,146.67 260.9,-183.56"
               style="fill:#ffffff;fill-opacity:1;fill-rule:nonzero;stroke:none"
               id="path8269" />
            <path
               d="m 4840,3874.07 v 0.09 l 0.05,0.06 -0.05,-0.15 m 0,0.09 v 0.12 -0.12"
               style="fill:#31384a;fill-opacity:1;fill-rule:nonzero;stroke:none"
               id="path8271" />
            <path
               d="M 4839.02,3875 4590,4038.93 v 155.55 l 155.47,-102.35 93.55,-217.13 m 600.98,561.32 -30.27,21.69 30.27,18.04 v -39.73"
               style="fill:#31384a;fill-opacity:1;fill-rule:nonzero;stroke:none"
               id="path8273" />
            <path
               d="m 4840,3874.29 v 0.06 l -0.98,0.65 -93.55,217.13 94.53,-62.24 v 88.62 l 569.73,339.5 30.27,-21.69 v -99.01 l -600,-463.02"
               style="fill:#272c3a;fill-opacity:1;fill-rule:nonzero;stroke:none"
               id="path8275" />
            <path
               d="m 4839.58,3889.58 -243.07,164.77 v 155.54 l 246.47,-170.85 -3.4,-149.46"
               style="fill:#e5e6e1;fill-opacity:1;fill-rule:nonzero;stroke:none"
               id="path8277" />
          </g>
        </g>
        <g
           id="g8279"
           transform="scale(0.1)">
          <g
             id="g8281"
             clip-path="url(#clipPath8285)">
            <path
               d="m 5450.73,4352.73 -611.43,-463.24 -0.2,165.06 611.63,436.91 v -138.73"
               style="fill:url(#linearGradient8291);fill-opacity:1;fill-rule:nonzero;stroke:none"
               id="path8293" />
          </g>
        </g>
        <g
           id="g8295"
           transform="scale(0.1)">
          <g
             id="g8297"
             clip-path="url(#clipPath8301)">
            <path
               d="m 5449.27,4490.63 -607.59,-455.85 -245.37,172.64 607.6,455.86 245.36,-172.65"
               style="fill:#ffffff;fill-opacity:1;fill-rule:nonzero;stroke:none"
               id="path8303" />
            <path
               d="m 1910,4227.27 v 0.06 l 0.02,0.04 -0.02,-0.1 m 0,0.06 v 0.07 -0.07"
               style="fill:#31384a;fill-opacity:1;fill-rule:nonzero;stroke:none"
               id="path8305" />
            <path
               d="M 1909.38,4227.87 1760,4330.49 v 97.41 l 89.79,-61.69 59.59,-138.34 m 370.62,355.55 -15.72,11.27 15.72,9.51 v -20.78"
               style="fill:#31384a;fill-opacity:1;fill-rule:nonzero;stroke:none"
               id="path8307" />
            <path
               d="m 1910,4227.41 v 0.03 l -0.62,0.43 -59.59,138.34 60.21,-41.37 v 55.49 l 354.28,214.36 15.72,-11.27 v -66.09 l -370,-289.92"
               style="fill:#272c3a;fill-opacity:1;fill-rule:nonzero;stroke:none"
               id="path8309" />
            <path
               d="m 1909.75,4236.97 -152.2,103.18 v 97.4 l 154.33,-106.98 -2.13,-93.6"
               style="fill:#e5e6e1;fill-opacity:1;fill-rule:nonzero;stroke:none"
               id="path8311" />
          </g>
        </g>
        <g
           id="g8313"
           transform="scale(0.1)">
          <g
             id="g8315"
             clip-path="url(#clipPath8319)">
            <path
               d="m 2292.44,4526.99 -382.87,-290.06 -0.12,103.35 382.99,273.57 v -86.86"
               style="fill:url(#linearGradient8325);fill-opacity:1;fill-rule:nonzero;stroke:none"
               id="path8327" />
          </g>
        </g>
        <g
           id="g8329"
           transform="scale(0.1)">
          <g
             id="g8331"
             clip-path="url(#clipPath8335)">
            <path
               d="m 2291.51,4613.34 -380.45,-285.44 -153.64,108.1 380.46,285.44 153.63,-108.1"
               style="fill:#ffffff;fill-opacity:1;fill-rule:nonzero;stroke:none"
               id="path8337" />
            <path
               d="m 2040,2817.27 v 0.06 l 0.02,0.04 -0.02,-0.1 m 0,0.06 v 0.07 -0.07"
               style="fill:#31384a;fill-opacity:1;fill-rule:nonzero;stroke:none"
               id="path8339" />
            <path
               d="M 2039.38,2817.87 1890,2920.5 v 97.4 l 89.78,-61.69 59.6,-138.34 m 370.62,355.55 -15.73,11.27 15.73,9.52 v -20.79"
               style="fill:#31384a;fill-opacity:1;fill-rule:nonzero;stroke:none"
               id="path8341" />
            <path
               d="m 2040,2817.41 v 0.04 l -0.62,0.42 -59.6,138.34 60.22,-41.37 v 55.5 l 354.27,214.35 15.73,-11.27 v -66.09 l -370,-289.92"
               style="fill:#272c3a;fill-opacity:1;fill-rule:nonzero;stroke:none"
               id="path8343" />
            <path
               d="m 2039.75,2826.98 -152.2,103.17 v 97.4 l 154.33,-106.98 -2.13,-93.59"
               style="fill:#e5e6e1;fill-opacity:1;fill-rule:nonzero;stroke:none"
               id="path8345" />
          </g>
        </g>
        <g
           id="g8347"
           transform="scale(0.1)">
          <g
             id="g8349"
             clip-path="url(#clipPath8353)">
            <path
               d="m 2422.44,3116.99 -382.87,-290.07 -0.12,103.36 382.99,273.57 v -86.86"
               style="fill:url(#linearGradient8359);fill-opacity:1;fill-rule:nonzero;stroke:none"
               id="path8361" />
          </g>
        </g>
        <g
           id="g8363"
           transform="scale(0.1)">
          <g
             id="g8365"
             clip-path="url(#clipPath8369)">
            <path
               d="m 2421.51,3203.34 -380.45,-285.44 -153.64,108.1 380.46,285.44 153.63,-108.1"
               style="fill:#ffffff;fill-opacity:1;fill-rule:nonzero;stroke:none"
               id="path8371" />
            <path
               d="m 6690,4365.83 v 0.05 l 0.02,0.03 -0.02,-0.08 m 0,0.05 v 0.04 -0.04"
               style="fill:#31384a;fill-opacity:1;fill-rule:nonzero;stroke:none"
               id="path8373" />
            <path
               d="m 6689.18,4366.54 -139.18,93.9 v 89.27 l 84.95,-57.32 54.23,-125.85 m 340.82,324.93 -15.02,10.76 15.02,9.07 v -19.83"
               style="fill:#31384a;fill-opacity:1;fill-rule:nonzero;stroke:none"
               id="path8375" />
            <path
               d="m 6690,4365.96 v 0.02 l -0.82,0.56 -54.23,125.85 55.05,-37.14 v 50.86 l 324.98,196.12 15.02,-10.76 v -59.79 l -340,-265.72"
               style="fill:#272c3a;fill-opacity:1;fill-rule:nonzero;stroke:none"
               id="path8377" />
            <path
               d="m 6689.57,4374.72 -139.5,94.56 v 89.28 l 141.45,-98.06 -1.95,-85.78"
               style="fill:#e5e6e1;fill-opacity:1;fill-rule:nonzero;stroke:none"
               id="path8379" />
          </g>
        </g>
        <g
           id="g8381"
           transform="scale(0.1)">
          <g
             id="g8383"
             clip-path="url(#clipPath8387)">
            <path
               d="m 7040.31,4640.53 -350.9,-265.86 -0.11,94.73 351.01,250.74 v -79.61"
               style="fill:url(#linearGradient8393);fill-opacity:1;fill-rule:nonzero;stroke:none"
               id="path8395" />
          </g>
        </g>
        <g
           id="g8397"
           transform="scale(0.1)">
          <g
             id="g8399"
             clip-path="url(#clipPath8403)">
            <path
               d="m 7039.47,4719.67 -348.69,-261.61 -140.83,99.08 348.71,261.62 140.81,-99.09"
               style="fill:#ffffff;fill-opacity:1;fill-rule:nonzero;stroke:none"
               id="path8405" />
            <path
               d="M 7408.68,2101.59 6810,2515.07 v 155.54 l 241.81,-164.59 191.43,111.33 289.23,-20.47 -253.89,-193.33 130.1,-301.96"
               style="fill:#31384a;fill-opacity:1;fill-rule:nonzero;stroke:none"
               id="path8407" />
            <path
               d="m 7435.68,2082.94 -27,18.65 -130.1,301.96 253.89,193.33 148.92,-10.54 62.2,-38.78 46.69,38.78 124.35,-38.81 4.5,-96.94 -483.45,-367.65"
               style="fill:#272c3a;fill-opacity:1;fill-rule:nonzero;stroke:none"
               id="path8409" />
            <path
               d="m 7432.47,2094.34 -625.77,436.15 v 155.54 l 627.95,-440.47 -2.18,-151.22"
               style="fill:#e5e6e1;fill-opacity:1;fill-rule:nonzero;stroke:none"
               id="path8411" />
          </g>
        </g>
        <g
           id="g8413"
           transform="scale(0.1)">
          <g
             id="g8415"
             clip-path="url(#clipPath8419)">
            <path
               d="m 7915.95,2465.13 -483.48,-370.06 0.68,168.07 482.8,340.71 v -138.72"
               style="fill:url(#linearGradient8425);fill-opacity:1;fill-rule:nonzero;stroke:none"
               id="path8427" />
          </g>
        </g>
        <g
           id="g8429"
           transform="scale(0.1)">
          <g
             id="g8431"
             clip-path="url(#clipPath8435)">
            <path
               d="m 7917.89,2594.07 -482.15,-350.7 -629.25,440.19 219.57,145.09 314.08,-221.02 255.91,186.12 321.84,-199.68"
               style="fill:#ffffff;fill-opacity:1;fill-rule:nonzero;stroke:none"
               id="path8437" />
            <path
               d="m 7030,491.969 v 0.062 l 0.02,0.02 -0.02,-0.082 m 0,0.062 v 0.071 -0.071 m 0,0.071 v 0.039 l -130,92.691 v 87.609 l 83.86,-59.8 50.52,-117.282 -4.38,-3.257 M 7380,804.41 7359.41,819.16 7380,831 v -26.59"
               style="fill:#31384a;fill-opacity:1;fill-rule:nonzero;stroke:none"
               id="path8439" />
            <path
               d="M 7034.38,495.359 6983.86,612.641 7030,579.73 v 49.911 L 7359.41,819.16 7380,804.41 v -51.531 l -345.62,-257.52"
               style="fill:#272c3a;fill-opacity:1;fill-rule:nonzero;stroke:none"
               id="path8441" />
            <path
               d="m 7035.93,500.711 -136.9,92.789 v 87.609 l 138.82,-96.23 -1.92,-84.168"
               style="fill:#e5e6e1;fill-opacity:1;fill-rule:nonzero;stroke:none"
               id="path8443" />
          </g>
        </g>
        <g
           id="g8445"
           transform="scale(0.1)">
          <g
             id="g8447"
             clip-path="url(#clipPath8451)">
            <path
               d="m 7380.14,761.551 -344.37,-260.891 -0.11,92.961 344.48,246.059 v -78.129"
               style="fill:url(#linearGradient8457);fill-opacity:1;fill-rule:nonzero;stroke:none"
               id="path8459" />
          </g>
        </g>
        <g
           id="g8461"
           transform="scale(0.1)">
          <g
             id="g8463"
             clip-path="url(#clipPath8467)">
            <path
               d="m 7379.32,839.242 -342.21,-256.754 -138.19,97.223 342.2,256.75 138.2,-97.219"
               style="fill:#ffffff;fill-opacity:1;fill-rule:nonzero;stroke:none"
               id="path8469" />
            <path
               d="M 6231.21,2913.73 6100,3003.64 v 86.95 l 82.16,-62.99 49.05,-113.87 m 342.1,308.25 -21.41,15.34 18.78,10.71 2.63,-26.05"
               style="fill:#31384a;fill-opacity:1;fill-rule:nonzero;stroke:none"
               id="path8471" />
            <path
               d="m 6234.41,2911.53 -3.2,2.2 -49.05,113.87 37.84,-29.01 v 49.53 l 331.9,189.2 21.41,-15.34 5.21,-51.61 -344.11,-258.84"
               style="fill:#272c3a;fill-opacity:1;fill-rule:nonzero;stroke:none"
               id="path8473" />
            <path
               d="m 6232.28,2920.13 -135.9,92.11 v 86.98 l 137.8,-95.51 -1.9,-83.58"
               style="fill:#e5e6e1;fill-opacity:1;fill-rule:nonzero;stroke:none"
               id="path8475" />
          </g>
        </g>
        <g
           id="g8477"
           transform="scale(0.1)">
          <g
             id="g8479"
             clip-path="url(#clipPath8483)">
            <path
               d="m 6573.96,3179.08 -341.84,-259 -0.11,92.28 341.95,244.27 v -77.55"
               style="fill:url(#linearGradient8489);fill-opacity:1;fill-rule:nonzero;stroke:none"
               id="path8491" />
          </g>
        </g>
        <g
           id="g8493"
           transform="scale(0.1)">
          <g
             id="g8495"
             clip-path="url(#clipPath8499)">
            <path
               d="m 6573.15,3256.17 -339.69,-254.85 -137.19,96.51 339.7,254.87 137.18,-96.53"
               style="fill:#ffffff;fill-opacity:1;fill-rule:nonzero;stroke:none"
               id="path8501" />
            <path
               d="M 6057.17,1922.76 5920,2014.87 v 86.96 l 87.07,-61.62 50.48,-117.17 -0.38,-0.28 m 343.13,309.39 -21.84,15.65 19.98,11.46 1.86,-27.11"
               style="fill:#31384a;fill-opacity:1;fill-rule:nonzero;stroke:none"
               id="path8503" />
            <path
               d="m 6057.55,1923.04 -50.48,117.17 42.93,-30.38 v 49.52 l 328.46,188.45 21.84,-15.65 3.47,-50.55 -346.22,-258.56"
               style="fill:#272c3a;fill-opacity:1;fill-rule:nonzero;stroke:none"
               id="path8505" />
            <path
               d="m 6057.78,1931.36 -135.9,92.12 v 86.98 l 137.82,-95.52 -1.92,-83.58"
               style="fill:#e5e6e1;fill-opacity:1;fill-rule:nonzero;stroke:none"
               id="path8507" />
          </g>
        </g>
        <g
           id="g8509"
           transform="scale(0.1)">
          <g
             id="g8511"
             clip-path="url(#clipPath8515)">
            <path
               d="m 6399.47,2190.31 -341.84,-258.99 -0.1,92.27 341.94,244.28 v -77.56"
               style="fill:url(#linearGradient8521);fill-opacity:1;fill-rule:nonzero;stroke:none"
               id="path8523" />
          </g>
        </g>
        <g
           id="g8525"
           transform="scale(0.1)">
          <g
             id="g8527"
             clip-path="url(#clipPath8531)">
            <path
               d="m 6398.66,2267.4 -339.7,-254.84 -137.17,96.51 339.69,254.86 137.18,-96.53"
               style="fill:#ffffff;fill-opacity:1;fill-rule:nonzero;stroke:none"
               id="path8533" />
            <path
               d="m 1190,3211.01 v 0.09 l 0.05,0.06 -0.05,-0.15 m 0,0.09 v 0.14 -0.14"
               style="fill:#272c3a;fill-opacity:1;fill-rule:nonzero;stroke:none"
               id="path8535" />
            <path
               d="M 1185.36,3214.35 940,3375.88 v 155.54 l 151.81,-99.94 93.55,-217.13 m 604.64,557.04 -31.7,22.71 31.7,18.9 v -41.61"
               style="fill:#31384a;fill-opacity:1;fill-rule:nonzero;stroke:none"
               id="path8537" />
            <path
               d="m 1190,3211.24 v 0.06 l -4.64,3.05 -93.55,217.13 98.19,-64.64 v 88.62 l 568.3,338.64 31.7,-22.71 v -97.13 l -600,-463.02"
               style="fill:#272c3a;fill-opacity:1;fill-rule:nonzero;stroke:none"
               id="path8539" />
            <path
               d="M 1186.96,3226.52 943.891,3391.3 v 155.54 l 246.459,-170.85 -3.39,-149.47"
               style="fill:#e5e6e1;fill-opacity:1;fill-rule:nonzero;stroke:none"
               id="path8541" />
            <path
               d="m 1798.12,3689.67 -611.45,-463.25 -0.19,165.08 611.64,436.91 v -138.74"
               style="fill:#eeefed;fill-opacity:1;fill-rule:nonzero;stroke:none"
               id="path8543" />
            <path
               d="m 1796.65,3827.58 -607.59,-455.85 -245.372,172.64 607.592,455.86 245.37,-172.65"
               style="fill:#ffffff;fill-opacity:1;fill-rule:nonzero;stroke:none"
               id="path8545" />
            <path
               d="m 5260,2109.36 v 0.16 l 0.1,0.11 -0.1,-0.27 m 0,0.16 v 0.24 -0.24 m 0,0.24 v 0.1 l -0.06,0.04 h 0.24 l -0.18,-0.14 m -2.95,2.1 L 4490,2632.3 v 111.04 l 619.67,-289.39 147.38,-342.09 m 322.95,302.29 -71.36,53.31 71.36,-20.75 v -32.56"
               style="fill:#31384a;fill-opacity:1;fill-rule:nonzero;stroke:none"
               id="path8547" />
            <path
               d="m 5259.94,2109.9 -2.89,1.96 -147.38,342.09 150.33,-70.2 v 156.01 l 248.64,-72.3 71.36,-53.31 v -48.87 L 5260.18,2109.9 h -0.24"
               style="fill:#272c3a;fill-opacity:1;fill-rule:nonzero;stroke:none"
               id="path8549" />
            <path
               d="m 5258.41,2136.67 -765.33,522.78 v 111.04 l 765.33,-359.94 v -273.88"
               style="fill:#e5e6e1;fill-opacity:1;fill-rule:nonzero;stroke:none"
               id="path8551" />
          </g>
        </g>
        <g
           id="g8553"
           transform="scale(0.1)">
          <g
             id="g8555"
             clip-path="url(#clipPath8559)">
            <path
               d="m 5583.62,2392.43 -325.71,-255.92 v 430.41 l 325.71,-93.07 v -81.42"
               style="fill:url(#linearGradient8565);fill-opacity:1;fill-rule:nonzero;stroke:none"
               id="path8567" />
          </g>
        </g>
        <g
           id="g8569"
           transform="scale(0.1)">
          <g
             id="g8571"
             clip-path="url(#clipPath8575)">
            <path
               d="m 5581.05,2472.38 -318.93,-242.89 -769.4,536.65 318.95,242.9 769.38,-536.66"
               style="fill:#ffffff;fill-opacity:1;fill-rule:nonzero;stroke:none"
               id="path8577" />
            <path
               d="m 4924.56,3168.5 119.22,-535.19 -247.76,240.49 H 2989.81 c -25.33,0 -53.58,74.9 -53.58,127.63 v 1455.76 c 0,115.35 28.25,142.21 53.58,142.21 h 1869.27 c 43.97,0 65.48,-65.61 65.48,-118.32 V 3168.5"
               style="fill:#3d4454;fill-opacity:1;fill-rule:nonzero;stroke:none"
               id="path8579" />
            <path
               d="m 4075.94,3793.05 h -50 c -0.02,-96.81 -39.09,-183.99 -102.51,-247.49 -63.49,-63.41 -150.68,-102.49 -247.49,-102.51 -96.8,0.02 -183.99,39.1 -247.48,102.51 -63.42,63.5 -102.49,150.68 -102.52,247.49 0.03,96.81 39.1,183.99 102.52,247.49 63.49,63.41 150.68,102.48 247.48,102.51 96.81,-0.03 184,-39.1 247.49,-102.51 63.42,-63.5 102.49,-150.68 102.51,-247.49 h 100 c 0.03,124.11 -50.44,236.92 -131.8,318.2 -81.27,81.35 -194.09,131.82 -318.2,131.8 -124.1,0.02 -236.92,-50.45 -318.19,-131.8 -81.36,-81.28 -131.83,-194.09 -131.81,-318.2 -0.02,-124.11 50.45,-236.93 131.81,-318.2 81.27,-81.36 194.09,-131.83 318.19,-131.8 124.11,-0.03 236.93,50.44 318.2,131.8 81.36,81.28 131.83,194.09 131.8,318.2 h -50"
               style="fill:#ffffff;fill-opacity:1;fill-rule:nonzero;stroke:none"
               id="path8581" />
            <path
               d="m 3935.61,3456.86 217.48,-201.06 c 20.28,-18.75 51.91,-17.51 70.66,2.77 18.75,20.28 17.5,51.91 -2.77,70.66 l -217.48,201.06 c -20.28,18.75 -51.91,17.51 -70.66,-2.77 -18.74,-20.28 -17.5,-51.91 2.77,-70.66"
               style="fill:#ffffff;fill-opacity:1;fill-rule:nonzero;stroke:none"
               id="path8583" />
            <path
               d="m 3419.64,3982.88 c -1.44,-2.09 -15.51,-22.26 -29.7,-55.34 -14.11,-33.06 -28.59,-79.27 -28.66,-133.52 -0.01,-28.68 4.18,-59.58 14.83,-90.99 10.61,-31.42 27.72,-63.22 52.51,-93.53 17.47,-21.38 48.97,-24.56 70.35,-7.09 21.39,17.47 24.56,48.97 7.09,70.36 -17.46,21.41 -28.39,42.17 -35.24,62.34 -6.82,20.15 -9.53,39.84 -9.54,58.91 -0.07,35.9 10.06,69.72 20.58,94.15 5.23,12.21 10.46,22.02 14.22,28.5 1.88,3.25 3.39,5.66 4.34,7.13 l 0.99,1.49 -0.22,0.15 0.21,-0.15 h 0.01 l -0.22,0.15 0.21,-0.15 c 15.9,22.58 10.49,53.77 -12.08,69.67 -22.58,15.9 -53.77,10.49 -69.67,-12.08"
               style="fill:#ffffff;fill-opacity:1;fill-rule:nonzero;stroke:none"
               id="path8585" />
            <path
               d="m 4364.94,3512.46 c -10.88,0 -19.78,3.71 -26.7,11.13 -6.93,7.42 -10.38,16.56 -10.38,27.44 0,10.88 3.45,20.03 10.38,27.44 6.92,7.41 15.82,11.12 26.7,11.12 10.88,0 19.77,-3.71 26.7,-11.12 6.91,-7.41 10.38,-16.56 10.38,-27.44 0,-10.88 -3.47,-20.02 -10.38,-27.44 -6.93,-7.42 -15.82,-11.13 -26.7,-11.13 z m -27.44,94.93 c -1.25,7.91 -0.99,15.21 0.74,21.88 1.73,6.68 4.26,12.79 7.6,18.36 3.33,5.56 7.16,10.68 11.5,15.38 4.32,4.7 8.34,9.15 12.05,13.35 3.7,4.2 6.86,8.22 9.45,12.05 2.6,3.83 3.9,7.72 3.9,11.68 0,6.68 -2.04,11.44 -6.12,14.28 -4.09,2.84 -8.97,4.26 -14.65,4.26 -6.43,0 -11.87,-1.48 -16.31,-4.45 -4.45,-2.96 -9.15,-6.67 -14.09,-11.12 l -34.86,31.89 c 9.14,10.38 19.96,18.78 32.45,25.22 12.48,6.42 26.14,9.64 40.97,9.64 10.13,0 19.65,-1.24 28.55,-3.71 8.9,-2.47 16.69,-6.3 23.37,-11.5 6.67,-5.19 11.91,-11.93 15.75,-20.2 3.83,-8.29 5.75,-18.24 5.75,-29.86 0,-7.41 -1.37,-14.03 -4.08,-19.83 -2.73,-5.81 -6,-11.19 -9.83,-16.13 -3.83,-4.95 -8.03,-9.64 -12.6,-14.1 -4.58,-4.45 -8.71,-9.02 -12.43,-13.72 -3.71,-4.69 -6.73,-9.76 -9.08,-15.2 -2.35,-5.44 -3.15,-11.5 -2.41,-18.17 h -55.62"
               style="fill:#ffffff;fill-opacity:1;fill-rule:nonzero;stroke:none"
               id="path8587" />
            <path
               d="m 6756.55,4838.81 40.55,-182.01 -84.26,81.79 h -614.23 c -8.61,0 -18.22,25.48 -18.22,43.41 v 495.05 c 0,39.23 9.61,48.36 18.22,48.36 h 635.67 c 14.96,0 22.27,-22.31 22.27,-40.24 v -446.36"
               style="fill:#3d4454;fill-opacity:1;fill-rule:nonzero;stroke:none"
               id="path8589" />
            <path
               d="m 6467.97,5051.2 h -15 c -0.01,-33.47 -13.52,-63.63 -35.45,-85.58 -21.95,-21.92 -52.11,-35.44 -85.58,-35.45 -33.47,0.01 -63.63,13.53 -85.58,35.45 -21.92,21.95 -35.43,52.11 -35.44,85.58 0.01,33.47 13.52,63.63 35.44,85.58 21.95,21.92 52.11,35.44 85.58,35.44 33.47,0 63.63,-13.52 85.58,-35.44 21.93,-21.95 35.44,-52.11 35.45,-85.58 h 30 c -0.01,83.41 -67.61,151.01 -151.03,151.02 -83.41,-0.01 -151.01,-67.6 -151.02,-151.02 0.01,-83.42 67.61,-151.02 151.02,-151.03 83.42,0.01 151.02,67.61 151.03,151.03 h -15"
               style="fill:#ffffff;fill-opacity:1;fill-rule:nonzero;stroke:none"
               id="path8591" />
            <path
               d="m 6421.61,4938.34 73.96,-68.37 c 6.08,-5.62 15.57,-5.25 21.2,0.83 5.62,6.09 5.25,15.58 -0.84,21.2 l -73.96,68.37 c -6.08,5.62 -15.58,5.25 -21.2,-0.84 -5.62,-6.08 -5.25,-15.57 0.84,-21.19"
               style="fill:#ffffff;fill-opacity:1;fill-rule:nonzero;stroke:none"
               id="path8593" />
            <path
               d="m 6246.42,5114.6 c -0.44,-0.62 -5.15,-7.38 -9.9,-18.45 -4.72,-11.07 -9.56,-26.54 -9.58,-44.62 -0.09,-19.09 5.79,-41.23 22.45,-61.48 5.24,-6.42 14.69,-7.37 21.11,-2.13 6.41,5.25 7.36,14.7 2.12,21.11 -12.09,14.92 -15.6,29.12 -15.68,42.5 -0.02,12.58 3.51,24.33 7.16,32.81 1.81,4.24 3.63,7.64 4.94,9.91 0.66,1.13 1.19,1.98 1.53,2.5 l 0.35,0.55 0.06,0.08 -5.16,3.55 5.13,-3.6 0.03,0.05 -5.16,3.55 5.13,-3.6 c 4.77,6.77 3.14,16.13 -3.63,20.9 -6.77,4.77 -16.13,3.14 -20.9,-3.63"
               style="fill:#ffffff;fill-opacity:1;fill-rule:nonzero;stroke:none"
               id="path8595" />
            <path
               d="m 6566.24,4955.78 c -3.7,0 -6.72,1.27 -9.07,3.79 -2.37,2.52 -3.53,5.62 -3.53,9.32 0,3.7 1.16,6.81 3.53,9.34 2.35,2.51 5.37,3.78 9.07,3.78 3.7,0 6.73,-1.27 9.09,-3.78 2.35,-2.53 3.53,-5.64 3.53,-9.34 0,-3.7 -1.18,-6.8 -3.53,-9.32 -2.36,-2.52 -5.39,-3.79 -9.09,-3.79 z m -9.33,32.28 c -0.42,2.7 -0.34,5.17 0.26,7.44 0.58,2.27 1.45,4.35 2.59,6.25 1.13,1.89 2.43,3.63 3.9,5.23 1.47,1.59 2.84,3.1 4.1,4.54 1.26,1.43 2.33,2.78 3.22,4.09 0.88,1.3 1.32,2.63 1.32,3.97 0,2.27 -0.69,3.89 -2.08,4.86 -1.39,0.97 -3.05,1.45 -4.98,1.45 -2.19,0 -4.04,-0.5 -5.55,-1.52 -1.52,-0.99 -3.12,-2.25 -4.79,-3.78 l -11.85,10.85 c 3.1,3.54 6.77,6.39 11.03,8.58 4.25,2.18 8.89,3.28 13.93,3.28 3.45,0 6.69,-0.43 9.71,-1.26 3.03,-0.85 5.67,-2.15 7.94,-3.92 2.27,-1.77 4.06,-4.06 5.37,-6.86 1.29,-2.84 1.95,-6.21 1.95,-10.16 0,-2.52 -0.46,-4.77 -1.39,-6.75 -0.93,-1.98 -2.04,-3.81 -3.34,-5.49 -1.31,-1.68 -2.73,-3.28 -4.29,-4.78 -1.55,-1.52 -2.96,-3.08 -4.22,-4.67 -1.26,-1.6 -2.29,-3.32 -3.09,-5.17 -0.8,-1.85 -1.07,-3.91 -0.82,-6.18 h -18.92"
               style="fill:#ffffff;fill-opacity:1;fill-rule:nonzero;stroke:none"
               id="path8597" />
            <path
               d="m 6302.06,1485.36 30.92,-138.8 -64.25,62.37 h -468.42 c -6.56,0 -13.89,19.44 -13.89,33.11 v 377.53 c 0,29.91 7.33,36.87 13.89,36.87 h 484.76 c 11.41,0 16.99,-17.01 16.99,-30.68 v -340.4"
               style="fill:#3d4454;fill-opacity:1;fill-rule:nonzero;stroke:none"
               id="path8599" />
            <path
               d="m 6081.99,1647.32 h -10 c 0,-25.91 -10.47,-49.28 -27.45,-66.27 -17,-16.98 -40.37,-27.45 -66.3,-27.46 -25.91,0.01 -49.28,10.48 -66.27,27.46 -16.98,16.99 -27.45,40.36 -27.46,66.27 0.01,25.92 10.48,49.3 27.46,66.29 16.99,16.98 40.36,27.45 66.27,27.45 25.93,0 49.3,-10.47 66.3,-27.45 16.98,-16.99 27.45,-40.37 27.45,-66.29 h 20 c 0,62.83 -50.92,113.74 -113.75,113.74 -62.81,0 -113.72,-50.91 -113.73,-113.74 0.01,-62.81 50.92,-113.72 113.73,-113.73 62.83,0.01 113.75,50.92 113.75,113.73 h -10"
               style="fill:#ffffff;fill-opacity:1;fill-rule:nonzero;stroke:none"
               id="path8601" />
            <path
               d="m 6047.61,1562.31 56.4,-52.13 c 4.06,-3.75 10.39,-3.5 14.13,0.56 3.75,4.06 3.5,10.38 -0.55,14.13 l -56.41,52.13 c -4.05,3.75 -10.38,3.5 -14.13,-0.56 -3.75,-4.05 -3.5,-10.38 0.56,-14.13"
               style="fill:#ffffff;fill-opacity:1;fill-rule:nonzero;stroke:none"
               id="path8603" />
            <path
               d="m 5914.21,1694.85 c -0.48,-0.86 -14.44,-20.21 -14.6,-47.27 -0.05,-14.28 4.32,-30.78 16.8,-45.97 3.49,-4.28 9.79,-4.91 14.07,-1.42 4.27,3.5 4.91,9.8 1.41,14.07 -9.43,11.63 -12.22,22.84 -12.28,33.32 -0.01,9.85 2.75,18.99 5.58,25.58 1.41,3.3 2.82,5.95 3.85,7.72 l 1.2,1.97 0.29,0.43 0.05,0.08 -2.76,1.9 2.74,-1.93 0.02,0.03 -2.76,1.9 2.74,-1.93 c 3.18,4.52 2.1,10.75 -2.42,13.93 -4.52,3.18 -10.75,2.1 -13.93,-2.41"
               style="fill:#ffffff;fill-opacity:1;fill-rule:nonzero;stroke:none"
               id="path8605" />
            <path
               d="m 6156.93,1574.56 c -2.83,0 -5.13,0.97 -6.92,2.89 -1.81,1.92 -2.7,4.3 -2.7,7.11 0,2.83 0.89,5.19 2.7,7.12 1.79,1.92 4.09,2.88 6.92,2.88 2.82,0 5.13,-0.96 6.93,-2.88 1.78,-1.93 2.68,-4.29 2.68,-7.12 0,-2.81 -0.9,-5.19 -2.68,-7.11 -1.8,-1.92 -4.11,-2.89 -6.93,-2.89 z m -7.12,24.63 c -0.31,2.05 -0.26,3.93 0.2,5.66 0.44,1.74 1.1,3.32 1.97,4.77 0.87,1.44 1.86,2.77 2.98,3.99 1.11,1.21 2.17,2.36 3.13,3.47 0.96,1.08 1.76,2.12 2.45,3.11 0.67,1 1.01,2 1.01,3.02 0,1.74 -0.52,2.98 -1.58,3.71 -1.06,0.74 -2.33,1.11 -3.8,1.11 -1.68,0 -3.08,-0.39 -4.24,-1.16 -1.16,-0.76 -2.38,-1.72 -3.65,-2.88 l -9.04,8.27 c 2.37,2.7 5.16,4.88 8.42,6.55 3.24,1.67 6.77,2.5 10.61,2.5 2.63,0 5.1,-0.34 7.41,-0.97 2.32,-0.65 4.32,-1.63 6.06,-2.99 1.73,-1.34 3.09,-3.09 4.09,-5.22 1,-2.17 1.48,-4.74 1.48,-7.75 0,-1.93 -0.34,-3.63 -1.05,-5.14 -0.7,-1.52 -1.55,-2.91 -2.55,-4.19 -1,-1.28 -2.08,-2.5 -3.26,-3.66 -1.19,-1.16 -2.27,-2.34 -3.23,-3.55 -0.96,-1.22 -1.75,-2.54 -2.36,-3.95 -0.61,-1.41 -0.81,-2.98 -0.62,-4.7 h -14.43"
               style="fill:#ffffff;fill-opacity:1;fill-rule:nonzero;stroke:none"
               id="path8607" />
            <path
               d="m 2132.36,3267.51 30.92,-138.8 -64.25,62.37 h -468.41 c -6.57,0 -13.9,19.43 -13.9,33.11 v 377.53 c 0,29.91 7.33,36.87 13.9,36.87 h 484.75 c 11.42,0 16.99,-17.01 16.99,-30.68 v -340.4"
               style="fill:#3d4454;fill-opacity:1;fill-rule:nonzero;stroke:none"
               id="path8609" />
            <path
               d="m 1912.29,3429.47 h -10 c 0,-25.91 -10.47,-49.28 -27.45,-66.28 -17,-16.97 -40.37,-27.45 -66.3,-27.45 -25.91,0 -49.28,10.48 -66.27,27.45 -16.98,17 -27.45,40.37 -27.46,66.28 0.01,25.92 10.48,49.29 27.46,66.29 16.99,16.98 40.36,27.45 66.27,27.45 25.93,0 49.3,-10.47 66.3,-27.45 16.98,-17 27.45,-40.37 27.45,-66.29 h 20 c 0,62.83 -50.92,113.73 -113.75,113.74 -62.81,-0.01 -113.72,-50.91 -113.73,-113.74 0.01,-62.81 50.92,-113.72 113.73,-113.73 62.84,0.01 113.75,50.92 113.75,113.73 h -10"
               style="fill:#ffffff;fill-opacity:1;fill-rule:nonzero;stroke:none"
               id="path8611" />
            <path
               d="m 1877.91,3344.46 56.41,-52.13 c 4.05,-3.75 10.38,-3.5 14.13,0.56 3.75,4.05 3.5,10.38 -0.56,14.13 l -56.41,52.13 c -4.05,3.75 -10.38,3.5 -14.13,-0.56 -3.75,-4.05 -3.5,-10.38 0.56,-14.13"
               style="fill:#ffffff;fill-opacity:1;fill-rule:nonzero;stroke:none"
               id="path8613" />
            <path
               d="m 1744.51,3477 c -0.48,-0.86 -14.43,-20.21 -14.59,-47.27 -0.06,-14.29 4.31,-30.78 16.79,-45.97 3.49,-4.28 9.79,-4.91 14.07,-1.42 4.28,3.49 4.91,9.79 1.42,14.07 -9.44,11.63 -12.23,22.84 -12.28,33.32 -0.02,9.85 2.74,18.99 5.57,25.58 1.41,3.3 2.83,5.94 3.85,7.71 l 1.2,1.97 0.29,0.44 0.05,0.08 -2.75,1.9 2.73,-1.93 0.02,0.03 -2.75,1.9 2.73,-1.93 c 3.18,4.52 2.1,10.75 -2.42,13.93 -4.51,3.18 -10.75,2.1 -13.93,-2.42"
               style="fill:#ffffff;fill-opacity:1;fill-rule:nonzero;stroke:none"
               id="path8615" />
            <path
               d="m 1987.24,3356.71 c -2.84,0 -5.14,0.97 -6.93,2.89 -1.8,1.92 -2.69,4.29 -2.69,7.11 0,2.83 0.89,5.19 2.69,7.12 1.79,1.92 4.09,2.88 6.93,2.88 2.81,0 5.12,-0.96 6.92,-2.88 1.79,-1.93 2.69,-4.29 2.69,-7.12 0,-2.82 -0.9,-5.19 -2.69,-7.11 -1.8,-1.92 -4.11,-2.89 -6.92,-2.89 z m -7.12,24.62 c -0.32,2.06 -0.27,3.94 0.19,5.67 0.44,1.74 1.11,3.32 1.98,4.76 0.86,1.45 1.85,2.78 2.97,4 1.12,1.21 2.17,2.36 3.13,3.47 0.97,1.08 1.77,2.11 2.45,3.11 0.67,1 1.02,2 1.02,3.02 0,1.74 -0.53,2.98 -1.59,3.71 -1.06,0.74 -2.33,1.11 -3.8,1.11 -1.68,0 -3.08,-0.39 -4.23,-1.16 -1.17,-0.76 -2.39,-1.72 -3.66,-2.88 l -9.04,8.27 c 2.37,2.7 5.17,4.87 8.42,6.54 3.24,1.67 6.78,2.5 10.61,2.5 2.63,0 5.1,-0.33 7.42,-0.96 2.31,-0.65 4.31,-1.63 6.05,-2.99 1.73,-1.34 3.1,-3.09 4.09,-5.23 1,-2.16 1.49,-4.73 1.49,-7.74 0,-1.93 -0.34,-3.63 -1.06,-5.15 -0.7,-1.51 -1.55,-2.91 -2.55,-4.19 -0.99,-1.27 -2.08,-2.5 -3.26,-3.65 -1.19,-1.16 -2.26,-2.34 -3.23,-3.55 -0.96,-1.22 -1.75,-2.54 -2.35,-3.95 -0.62,-1.41 -0.81,-2.99 -0.63,-4.71 h -14.42"
               style="fill:#ffffff;fill-opacity:1;fill-rule:nonzero;stroke:none"
               id="path8617" />
            <path
               d="m 7541.11,2783.34 -58.03,-260.5 120.59,117.06 h 879.14 c 12.33,0 26.09,36.46 26.09,62.13 v 708.55 c 0,56.16 -13.76,69.22 -26.09,69.22 h -909.82 c -21.41,0 -31.88,-31.92 -31.88,-57.59 v -638.87"
               style="fill:#3d4454;fill-opacity:1;fill-rule:nonzero;stroke:none"
               id="path8619" />
            <path
               d="m 8148.39,3094.68 h -25 c -0.01,-50.7 -20.48,-96.38 -53.7,-129.64 -33.26,-33.22 -78.94,-53.69 -129.65,-53.7 -50.71,0.01 -96.39,20.48 -129.65,53.7 -33.22,33.26 -53.69,78.94 -53.7,129.64 0.01,50.71 20.48,96.39 53.7,129.65 33.26,33.22 78.94,53.69 129.65,53.7 50.71,-0.01 96.39,-20.48 129.65,-53.7 33.22,-33.26 53.69,-78.94 53.7,-129.65 h 50 c -0.02,128.89 -104.47,233.34 -233.35,233.35 -128.88,-0.01 -233.33,-104.46 -233.35,-233.35 0.02,-128.88 104.47,-233.33 233.35,-233.35 128.88,0.02 233.33,104.47 233.35,233.35 h -25"
               style="fill:#ffffff;fill-opacity:1;fill-rule:nonzero;stroke:none"
               id="path8621" />
            <path
               d="m 8076.01,2920.34 113.27,-104.72 c 10.14,-9.38 25.95,-8.76 35.33,1.38 9.37,10.14 8.75,25.96 -1.39,35.33 l -113.27,104.72 c -10.14,9.38 -25.96,8.76 -35.33,-1.38 -9.37,-10.14 -8.75,-25.95 1.39,-35.33"
               style="fill:#ffffff;fill-opacity:1;fill-rule:nonzero;stroke:none"
               id="path8623" />
            <path
               d="m 7807.39,3192.97 c -0.72,-1.04 -8.01,-11.5 -15.37,-28.64 -7.31,-17.13 -14.81,-41.07 -14.84,-69.14 -0.01,-14.84 2.16,-30.81 7.67,-47.06 5.49,-16.25 14.34,-32.7 27.18,-48.4 8.73,-10.69 24.48,-12.27 35.18,-3.54 10.69,8.74 12.27,24.49 3.54,35.18 -9.18,11.25 -14.94,22.18 -18.54,32.8 -3.6,10.62 -5.03,20.99 -5.03,31.02 -0.04,18.89 5.29,36.64 10.81,49.46 2.74,6.4 5.48,11.55 7.46,14.96 0.99,1.7 1.79,2.97 2.29,3.75 l 0.52,0.8 0.01,0.02 c 7.95,11.28 5.25,26.88 -6.04,34.83 -11.29,7.95 -26.89,5.25 -34.84,-6.04"
               style="fill:#ffffff;fill-opacity:1;fill-rule:nonzero;stroke:none"
               id="path8625" />
            <path
               d="m 8298.92,2948.54 c -5.67,0 -10.31,1.94 -13.91,5.79 -3.6,3.86 -5.41,8.63 -5.41,14.3 0,5.66 1.81,10.43 5.41,14.29 3.6,3.85 8.24,5.79 13.91,5.79 5.66,0 10.29,-1.94 13.9,-5.79 3.61,-3.86 5.41,-8.63 5.41,-14.29 0,-5.67 -1.8,-10.44 -5.41,-14.3 -3.61,-3.85 -8.24,-5.79 -13.9,-5.79 z m -14.3,49.45 c -0.65,4.12 -0.51,7.92 0.39,11.38 0.9,3.49 2.23,6.67 3.96,9.57 1.73,2.89 3.74,5.57 5.99,8.01 2.25,2.45 4.34,4.77 6.27,6.95 1.92,2.19 3.58,4.29 4.93,6.28 1.35,1.99 2.03,4.03 2.03,6.09 0,3.48 -1.06,5.95 -3.19,7.43 -2.13,1.48 -4.67,2.23 -7.63,2.23 -3.35,0 -6.18,-0.78 -8.49,-2.32 -2.33,-1.54 -4.77,-3.48 -7.35,-5.8 l -18.15,16.62 c 4.75,5.4 10.4,9.78 16.9,13.13 6.5,3.35 13.62,5.02 21.34,5.02 5.27,0 10.24,-0.65 14.87,-1.93 4.64,-1.29 8.7,-3.28 12.17,-5.98 3.48,-2.71 6.2,-6.23 8.21,-10.53 1.99,-4.33 2.99,-9.5 2.99,-15.56 0,-3.86 -0.71,-7.3 -2.13,-10.33 -1.41,-3.02 -3.12,-5.83 -5.11,-8.4 -2,-2.58 -4.19,-5.01 -6.57,-7.34 -2.38,-2.32 -4.54,-4.7 -6.47,-7.14 -1.93,-2.45 -3.51,-5.09 -4.73,-7.93 -1.23,-2.82 -1.64,-5.99 -1.26,-9.45 h -28.97"
               style="fill:#ffffff;fill-opacity:1;fill-rule:nonzero;stroke:none"
               id="path8627" />
          </g>
        </g>
      </g>
    </g>
  </g>
</svg>
